<?xml version="1.0" standalone="no"?>
<!DOCTYPE svg PUBLIC "-//W3C//DTD SVG 20010904//EN"
 "http://www.w3.org/TR/2001/REC-SVG-20010904/DTD/svg10.dtd">
<svg version="1.0" xmlns="http://www.w3.org/2000/svg"
 width="512.000000pt" height="512.000000pt" viewBox="0 0 512.000000 512.000000"
 preserveAspectRatio="xMidYMid meet">
<metadata>
Created by potrace 1.11, written by Peter Selinger 2001-2013
</metadata>
<g transform="translate(0.000000,512.000000) scale(0.100000,-0.100000)"
fill="#000000" stroke="none">
<path d="M0 2560 l0 -2560 2560 0 2560 0 0 2560 0 2560 -2560 0 -2560 0 0
-2560z m1388 1103 c131 -227 373 -648 564 -983 99 -173 186 -321 193 -328 10
-11 38 31 151 225 236 408 347 598 348 600 2 2 87 -146 278 -484 l70 -122
-138 -238 c-292 -505 -386 -667 -540 -935 -87 -152 -162 -274 -166 -270 -4 4
-47 77 -96 162 -85 148 -354 615 -844 1465 -539 933 -598 1037 -598 1041 0 2
157 4 349 4 l349 0 80 -137z m2302 121 c0 -3 -31 -58 -69 -122 -37 -64 -110
-190 -161 -280 -86 -151 -110 -187 -110 -164 0 5 -67 126 -148 268 -82 143
-154 269 -161 282 l-12 22 331 0 c181 0 330 -3 330 -6z m830 -31 c-13 -21
-178 -310 -368 -643 -189 -333 -351 -616 -359 -630 -14 -24 -2 -47 347 -660
199 -349 371 -650 382 -667 l20 -33 -355 0 -355 0 -198 348 c-108 191 -200
351 -204 355 -4 4 -98 -152 -210 -348 l-203 -355 -354 0 c-195 0 -352 3 -350
8 24 41 342 599 572 1002 158 278 436 765 617 1083 l330 577 355 0 355 0 -22
-37z"/>
</g>
</svg>
